<svg xmlns="http://www.w3.org/2000/svg" xmlns:xlink="http://www.w3.org/1999/xlink" width="2000" zoomAndPan="magnify" viewBox="0 0 1500 1499.999933" height="2000" preserveAspectRatio="xMidYMid meet" version="1.0"><defs><g/><clipPath id="cbad262c47"><path d="M 525 944 L 979 944 L 979 1500 L 525 1500 Z M 525 944 " clip-rule="nonzero"/></clipPath><clipPath id="b9432a1633"><path d="M 525.554688 996.449219 L 911.578125 944.9375 L 978.824219 1448.839844 L 592.796875 1500.355469 Z M 525.554688 996.449219 " clip-rule="nonzero"/></clipPath><clipPath id="a05073191d"><path d="M 0.320312 0.878906 L 375 0.878906 L 375 542 L 0.320312 542 Z M 0.320312 0.878906 " clip-rule="nonzero"/></clipPath><clipPath id="c5d29062ca"><path d="M 0.554688 52.449219 L 386.578125 0.9375 L 453.824219 504.839844 L 67.796875 556.355469 Z M 0.554688 52.449219 " clip-rule="nonzero"/></clipPath><clipPath id="3e5a80a8ed"><path d="M 374.183594 -88.84375 L -12.742188 -37.210938 L 66.511719 556.675781 L 453.4375 505.042969 Z M 374.183594 -88.84375 " clip-rule="nonzero"/></clipPath><clipPath id="d764786f6c"><path d="M 374.183594 -88.84375 L -12.742188 -37.210938 L 66.511719 556.675781 L 453.4375 505.042969 Z M 374.183594 -88.84375 " clip-rule="nonzero"/></clipPath><clipPath id="b7c9b117e0"><rect x="0" width="454" y="0" height="556"/></clipPath><clipPath id="060964c65e"><path d="M 0.441406 0 L 1208.839844 0 L 1208.839844 1500 L 0.441406 1500 Z M 0.441406 0 " clip-rule="nonzero"/></clipPath><clipPath id="6ddcac9428"><rect x="0" width="1209" y="0" height="1500"/></clipPath><clipPath id="bbe8c58066"><rect x="0" width="1209" y="0" height="1500"/></clipPath></defs><g transform="matrix(1, 0, 0, 1, 175, 0.000000000000112861)"><g clip-path="url(#bbe8c58066)"><g clip-path="url(#cbad262c47)"><g clip-path="url(#b9432a1633)"><g transform="matrix(1, 0, 0, 1, 525, 944)"><g clip-path="url(#b7c9b117e0)"><g clip-path="url(#a05073191d)"><g clip-path="url(#c5d29062ca)"><g clip-path="url(#3e5a80a8ed)"><g clip-path="url(#d764786f6c)"><path fill="#000000" d="M -12.75 -37.234375 L 374.957031 -83.109375 C 351.785156 -48.105469 338.757812 -25.851562 335.867188 -16.347656 C 333.042969 -6.804688 331.261719 4.585938 330.515625 17.832031 C 331.652344 73.101562 331.320312 104.660156 329.515625 112.507812 C 327.160156 129.675781 319.109375 143.003906 305.371094 152.492188 C 281.179688 159.832031 261.53125 153.992188 246.429688 134.972656 C 242.4375 129.945312 239.15625 123.308594 236.585938 115.0625 C 230.289062 81.386719 225.175781 59.851562 221.25 50.460938 C 215.839844 37.308594 207.480469 26.921875 196.179688 19.292969 C 166.207031 2.894531 146.085938 12.835938 135.820312 49.117188 C 131.660156 66.347656 133.230469 99.195312 140.535156 147.660156 C 149.21875 189.515625 165.933594 254.910156 190.675781 343.839844 C 195.707031 365.269531 200.425781 396.054688 204.828125 436.1875 C 206.902344 469.992188 207.351562 488.460938 206.171875 491.601562 C 205.480469 501.652344 204.121094 510.191406 202.097656 517.226562 C 198.050781 531.292969 191.351562 539.324219 182 541.316406 C 176.234375 541.035156 170.789062 539.527344 165.675781 536.796875 L 158.246094 531.78125 C 153.453125 527.828125 148.988281 522.648438 144.851562 516.246094 C 136.875 504.808594 129.601562 485.738281 123.03125 459.039062 C 120.675781 447.125 118.6875 427.347656 117.066406 399.71875 C 116.980469 322.378906 115.640625 269.835938 113.050781 242.09375 C 107.210938 186.058594 99.410156 144.359375 89.640625 116.992188 C 84.820312 103.054688 77.847656 90.058594 68.722656 78.007812 L 5.496094 4.054688 C -4.792969 -12.757812 -10.875 -26.519531 -12.75 -37.234375 " fill-opacity="1" fill-rule="nonzero"/></g></g></g></g></g></g></g></g><path fill="#000000" d="M 889.667969 414.34375 C 870.605469 402.464844 857.5625 384.5625 844.542969 366.636719 C 844.957031 369.628906 844.335938 371.589844 843.253906 373.085938 C 855.597656 388.402344 871.835938 410.339844 889.667969 414.34375 Z M 889.667969 414.34375 " fill-opacity="1" fill-rule="evenodd"/><path fill="#000000" d="M 809.734375 410.476562 C 805.269531 401.617188 794.78125 398.78125 789.105469 391.136719 C 790.9375 402.625 801.4375 405.449219 809.734375 410.476562 Z M 809.734375 410.476562 " fill-opacity="1" fill-rule="evenodd"/><path fill="#000000" d="M 786.523438 398.871094 C 789.089844 411.351562 797.964844 417.519531 808.445312 422.082031 C 804.167969 411.3125 794.273438 406.164062 786.523438 398.871094 Z M 786.523438 398.871094 " fill-opacity="1" fill-rule="evenodd"/><path fill="#000000" d="M 618.914062 418.210938 C 619.265625 416.457031 618.117188 413.179688 617.625 415.632812 C 617.277344 417.390625 618.425781 420.667969 618.914062 418.210938 Z M 618.914062 418.210938 " fill-opacity="1" fill-rule="evenodd"/><path fill="#000000" d="M 438.414062 467.207031 C 461.554688 469.636719 473.496094 488.769531 487.40625 502.019531 C 484.96875 495.148438 477.296875 487.902344 470.644531 481.390625 C 464.558594 475.433594 456.757812 466.949219 450.015625 464.628906 C 437.050781 460.167969 421.28125 464.492188 406.179688 467.207031 C 418.683594 469.191406 427.953125 466.109375 438.414062 467.207031 Z M 438.414062 467.207031 " fill-opacity="1" fill-rule="evenodd"/><path fill="#000000" d="M 515.769531 481.390625 C 518.765625 476.621094 530.304688 473.609375 528.664062 468.5 C 518.394531 471.363281 510.476562 481.171875 510.613281 490.417969 C 514.652344 489.726562 515.261719 485.605469 515.769531 481.390625 Z M 515.769531 481.390625 " fill-opacity="1" fill-rule="evenodd"/><path fill="#000000" d="M 723.347656 503.308594 C 714.191406 504.980469 701.882812 499.902344 697.5625 508.46875 C 723.875 506.644531 754.382812 507.238281 774.921875 494.285156 C 758.988281 498.101562 736.644531 500.886719 723.347656 503.308594 Z M 723.347656 503.308594 " fill-opacity="1" fill-rule="evenodd"/><path fill="#000000" d="M 640.832031 518.78125 C 642.128906 516.210938 646.535156 516.75 645.992188 512.335938 C 641.53125 511.316406 640.546875 513.769531 638.253906 514.914062 C 611.667969 508.4375 593.441406 531.738281 578.949219 545.859375 C 596.136719 533.867188 610.515625 513.496094 640.832031 518.78125 Z M 640.832031 518.78125 " fill-opacity="1" fill-rule="evenodd"/><path fill="#000000" d="M 781.367188 529.097656 C 779.722656 546.796875 771.382812 564.664062 776.210938 584.539062 C 775.710938 564.695312 782.710938 545.488281 781.367188 529.097656 Z M 781.367188 529.097656 " fill-opacity="1" fill-rule="evenodd"/><path fill="#000000" d="M 772.34375 856.597656 C 769.21875 861.636719 764.296875 864.882812 759.449219 868.199219 C 766.078125 868.730469 777.195312 856.519531 772.34375 856.597656 Z M 772.34375 856.597656 " fill-opacity="1" fill-rule="evenodd"/><path fill="#000000" d="M 803.285156 918.484375 C 820.707031 918.691406 827.105469 936.773438 844.542969 932.667969 C 825.3125 934.941406 820.441406 909.761719 803.285156 918.484375 Z M 803.285156 918.484375 " fill-opacity="1" fill-rule="evenodd"/><path fill="#000000" d="M 823.964844 615.460938 C 823.019531 615.808594 822.136719 616.242188 821.335938 616.773438 C 822.265625 616.328125 823.132812 615.890625 823.964844 615.460938 Z M 823.964844 615.460938 " fill-opacity="1" fill-rule="evenodd"/><path fill="#000000" d="M 990.234375 544.570312 C 989.550781 537.671875 991.148438 531.121094 990.234375 526.519531 C 988.152344 516.003906 978.335938 508.441406 973.472656 498.152344 C 965.988281 482.308594 960.667969 455.144531 963.160156 433.683594 C 965.039062 417.523438 973.867188 404.976562 970.894531 389.847656 C 968.679688 378.570312 955.027344 367.582031 947.6875 355.035156 C 944.636719 349.816406 942.84375 342.59375 939.953125 338.273438 C 934.558594 330.21875 925.90625 324.828125 921.902344 316.351562 C 918.15625 308.429688 917.117188 300.121094 914.164062 293.144531 C 892.320312 241.550781 854.957031 205.863281 808.441406 178.390625 C 756.84375 147.910156 683.742188 128.164062 606.023438 135.839844 C 564.367188 139.957031 528.328125 153.101562 492.5625 168.074219 C 457.308594 182.835938 424.578125 199.277344 394.578125 219.652344 C 365.097656 239.667969 337.261719 260.785156 313.351562 286.699219 C 292.804688 308.960938 273.242188 335.800781 257.910156 361.480469 C 252.125 371.171875 248.867188 378.351562 243.730469 388.558594 C 226.886719 422.007812 213.589844 466.007812 211.496094 513.625 C 205.765625 643.949219 255.207031 732.410156 322.375 786.96875 C 330.472656 793.546875 343.191406 803 357.1875 808.890625 C 378.234375 817.746094 399.90625 820.539062 401.023438 847.570312 C 401.722656 864.464844 391.375 877.367188 392 891.410156 C 392.359375 899.507812 395.988281 908.121094 404.890625 906.882812 C 413.953125 905.621094 414.363281 893.027344 411.335938 879.804688 C 407.503906 863.042969 396.859375 826.136719 419.074219 825.652344 C 432.347656 825.363281 435.710938 842.351562 438.414062 861.753906 C 440.664062 877.917969 443.902344 900.617188 443.570312 912.039062 C 443.148438 926.703125 430.910156 961.519531 448.726562 959.746094 C 461.972656 958.425781 453.410156 933.074219 452.597656 922.355469 C 450.84375 899.28125 452.300781 870.617188 465.488281 866.910156 C 474.886719 871.851562 478.382812 884.164062 480.960938 895.277344 C 489.976562 934.171875 489.867188 987.441406 487.40625 1030.660156 C 486.386719 1048.597656 481.757812 1066.34375 482.25 1082.234375 C 482.609375 1093.863281 488.714844 1109.328125 489.984375 1126.074219 C 491.542969 1146.582031 485.039062 1164.304688 487.40625 1180.226562 C 489.496094 1194.269531 500.441406 1206.78125 515.773438 1204.722656 C 526.78125 1203.25 531.625 1191.046875 537.691406 1186.671875 C 543.984375 1224.425781 511.046875 1287.5625 533.824219 1319.476562 C 535.945312 1322.449219 542.890625 1329.269531 548.003906 1331.082031 C 580.476562 1342.578125 592.421875 1304.734375 589.261719 1275.640625 C 586.054688 1246.105469 571.871094 1214.179688 569.921875 1175.070312 C 567.011719 1116.640625 573.691406 1060.210938 581.527344 1012.609375 C 583.234375 1002.238281 582.972656 986.476562 595.710938 984.242188 C 600.335938 988.332031 601.4375 994.765625 602.15625 1001.003906 C 604.359375 1020.125 604.042969 1048.46875 606.023438 1068.050781 C 606.871094 1076.410156 608.992188 1084.410156 608.601562 1089.972656 C 607.902344 1100.007812 593.332031 1127.6875 609.890625 1131.230469 C 633.125 1136.199219 616.652344 1093.902344 616.339844 1087.394531 C 616.097656 1082.386719 618.1875 1074.570312 618.917969 1065.472656 C 620.351562 1047.585938 620.628906 1007.34375 633.097656 1006.164062 C 644.429688 1005.089844 648.835938 1028.683594 651.148438 1043.554688 C 656.171875 1075.832031 657.730469 1113.132812 655.015625 1147.992188 C 653.875 1162.675781 648.820312 1186.921875 661.464844 1191.832031 C 671.597656 1195.765625 672.214844 1186.484375 682.09375 1187.960938 C 681.390625 1200.089844 683.0625 1209.519531 682.09375 1218.90625 C 679.28125 1246.136719 657.496094 1264.214844 664.042969 1294.980469 C 667.21875 1309.910156 690.117188 1327.453125 706.589844 1315.609375 C 725.292969 1302.164062 712.671875 1265.394531 707.878906 1248.5625 C 702.5625 1229.878906 700.15625 1198.011719 701.433594 1169.910156 C 703.039062 1134.511719 700.945312 1096.714844 702.722656 1065.472656 C 703.640625 1049.304688 708.90625 1007.085938 724.640625 1008.742188 C 736.792969 1010.019531 736.261719 1046.109375 734.953125 1061.605469 C 734.261719 1069.816406 728.703125 1087.976562 741.402344 1086.101562 C 751.960938 1084.546875 744.96875 1066.550781 743.980469 1059.027344 C 741.523438 1040.363281 739.574219 1021.242188 751.714844 1017.765625 C 752.714844 1019.488281 756.328125 1020.585938 756.871094 1021.632812 C 760.929688 1029.4375 759.933594 1056.335938 762.03125 1079.65625 C 763.613281 1097.238281 766.941406 1116.09375 765.898438 1126.074219 C 764.324219 1141.140625 748.683594 1154.554688 745.269531 1167.332031 C 740.320312 1185.855469 749.488281 1208.050781 767.1875 1207.300781 C 783.574219 1206.609375 788.304688 1185.851562 786.527344 1169.910156 C 784.652344 1153.078125 775.472656 1141.796875 773.632812 1129.941406 C 770.882812 1112.175781 775.191406 1091.84375 777.503906 1074.5 C 780.039062 1055.460938 779.625 1033.800781 792.972656 1026.792969 C 829.128906 1046.769531 814.867188 1114.542969 818.761719 1167.332031 C 819.1875 1173.140625 821.566406 1178.789062 821.339844 1184.09375 C 820.5 1203.773438 802.277344 1235.972656 811.023438 1257.589844 C 813.457031 1263.59375 821.464844 1268.875 829.074219 1267.902344 C 840.097656 1266.5 843.269531 1254.773438 841.96875 1240.828125 C 840.207031 1221.96875 826.496094 1201.15625 826.496094 1184.09375 C 826.496094 1175.949219 830.59375 1165.421875 831.652344 1154.4375 C 834.699219 1122.835938 835.242188 1084.621094 839.390625 1056.449219 C 841.859375 1039.660156 849.621094 1015.265625 863.886719 1016.476562 C 876.324219 1017.535156 879.910156 1041.550781 880.648438 1056.449219 C 881.25 1068.65625 877.398438 1082.464844 884.515625 1087.390625 C 889.664062 1079.378906 886.507812 1068.9375 887.09375 1059.027344 C 888.648438 1032.710938 891.871094 999.5 910.300781 989.402344 C 914.316406 994.191406 915.378906 999.992188 916.746094 1008.742188 C 917.914062 1016.195312 915.511719 1027.617188 923.195312 1029.371094 C 926.683594 1007.933594 926.777344 983.097656 938.664062 970.058594 C 983.089844 960.246094 943.390625 920.945312 947.691406 881.09375 C 948.042969 877.839844 949.152344 872.621094 950.269531 869.488281 C 951.554688 865.882812 959.550781 857.988281 961.871094 851.4375 C 963.933594 845.621094 962.0625 838.832031 964.453125 832.097656 C 967.261719 824.171875 974.894531 819.261719 976.054688 812.757812 C 978.234375 800.566406 972.300781 776.992188 969.609375 770.207031 C 966.277344 761.8125 964.769531 754.003906 955.425781 753.445312 C 944.242188 762.523438 947.878906 793.09375 932.21875 793.417969 C 932.28125 785.617188 932.980469 777.183594 929.640625 772.785156 C 925.898438 771.113281 920.488281 771.113281 916.746094 772.785156 C 917.441406 765.644531 913.894531 762.746094 909.011719 761.183594 C 900.394531 764.167969 903.667969 779.046875 894.828125 781.8125 C 874.472656 771.65625 884.402344 731.210938 881.9375 703.160156 C 889.238281 697.40625 898.433594 697.28125 905.144531 691.558594 C 911.144531 686.441406 911.382812 676.941406 919.324219 673.503906 C 926.382812 674.488281 931.054688 680.054688 937.375 674.796875 C 942.324219 677.582031 943.796875 683.847656 951.558594 683.820312 C 959.242188 680.328125 956.148438 666.058594 965.742188 664.480469 C 973.699219 665.976562 969.550781 679.582031 979.925781 678.664062 C 997.484375 662.699219 980.03125 631.238281 974.765625 614.195312 C 980.851562 607.351562 988.5625 606.144531 992.816406 598.722656 C 1001.886719 582.890625 992.5625 568.019531 990.234375 544.570312 Z M 486.117188 196.441406 C 483.847656 198.832031 470.878906 214.160156 464.199219 220.941406 C 480.660156 206.179688 500.515625 183.816406 527.375 174.523438 C 524.347656 174.226562 518.652344 175.992188 513.191406 178.390625 C 509.4375 180.042969 503.71875 188.3125 501.589844 182.257812 C 496.191406 180.34375 506.085938 177.464844 509.324219 175.8125 C 550.253906 154.945312 604.785156 143.359375 669.199219 147.445312 C 687.828125 148.628906 707.304688 152.371094 723.347656 156.472656 C 768.828125 168.09375 809.808594 188.839844 840.675781 214.492188 C 857.65625 228.605469 869.859375 244.628906 880.644531 262.199219 C 891.386719 279.699219 896.402344 300.699219 912.875 316.351562 C 899.289062 314.464844 895.203125 291.914062 884.511719 282.828125 C 887.101562 289.539062 879.363281 290.441406 874.199219 295.722656 C 882.074219 297.148438 885.152344 288.359375 890.957031 291.855469 C 893.140625 296.34375 891.433594 296.359375 888.378906 298.300781 C 890.644531 302.914062 895.976562 304.460938 899.984375 307.328125 C 908.429688 321.675781 924.894531 332.972656 934.796875 348.585938 C 938.492188 354.417969 940.890625 361.820312 945.109375 367.925781 C 951.261719 376.824219 959.988281 382.800781 960.582031 396.292969 C 961.003906 405.925781 955.320312 414.765625 954.136719 424.660156 C 952.925781 434.769531 953.46875 446.316406 954.136719 455.605469 C 956.046875 482.289062 969.765625 504.699219 970.894531 527.808594 C 968.144531 528.410156 968.441406 525.964844 968.316406 523.941406 C 951.75 526.066406 940.59375 512.316406 928.347656 505.886719 C 935.921875 506.914062 957.441406 523.929688 964.449219 507.179688 C 958.421875 483.847656 949.195312 465.347656 951.558594 432.394531 C 952.746094 415.785156 962.292969 401.410156 955.425781 387.265625 C 951.347656 378.871094 941.125 369.539062 933.507812 361.480469 C 920.835938 348.078125 908.59375 329.1875 885.800781 336.980469 C 879.566406 340.785156 878.808594 357.867188 869.042969 357.613281 C 864.355469 357.488281 858 352.128906 861.304688 343.429688 C 856.832031 338.019531 856.839844 328.121094 854.859375 320.21875 C 854.867188 332.257812 855.320312 354.996094 863.882812 362.769531 C 865.382812 362.558594 866.179688 363.054688 866.460938 364.058594 C 868.609375 364.058594 870.761719 364.058594 872.910156 364.058594 C 879.035156 361.578125 871.453125 367.394531 866.460938 365.347656 C 851.890625 361.042969 854.15625 334.105469 847.125 320.222656 C 844.433594 314.910156 840.542969 314.777344 838.097656 309.90625 C 840.855469 301.921875 851.769531 302.085938 850.992188 290.566406 C 844.730469 288.914062 838.292969 291.300781 831.652344 294.433594 C 830.058594 298.605469 835.824219 295.417969 834.230469 299.589844 C 827 299.085938 824.785156 293.566406 820.046875 290.566406 C 811.632812 292.722656 805.15625 285.90625 800.707031 280.25 C 790.589844 281.753906 785.457031 271.46875 776.210938 276.382812 C 773.476562 274.394531 770.464844 272.675781 767.1875 271.226562 C 746.894531 272.851562 728.488281 276.363281 713.035156 282.828125 C 727.191406 283.09375 757.707031 265.890625 773.632812 280.25 C 783.960938 274.320312 797.089844 281.878906 800.707031 290.566406 C 802.425781 290.757812 804.601562 285.324219 805.867188 289.277344 C 810.382812 289.058594 809.925781 293.8125 812.3125 295.722656 C 820.472656 294.5 831.953125 305.570312 836.808594 311.195312 C 842.398438 317.667969 842.425781 328.914062 838.097656 340.851562 C 833.371094 336.550781 832.535156 328.363281 829.074219 322.800781 C 828.039062 327.734375 833.464844 337.292969 835.519531 343.429688 C 832.320312 349.183594 828.796875 354.132812 823.917969 355.035156 C 822.695312 355.257812 810.414062 353.269531 808.445312 352.457031 C 805.027344 351.042969 811.550781 353.320312 805.867188 349.878906 C 802.90625 348.082031 806.324219 348.9375 803.289062 346.007812 C 799.367188 342.226562 790.742188 340.617188 785.238281 336.984375 C 783.851562 336.066406 783.929688 332.929688 782.660156 331.824219 C 781.660156 330.960938 780.554688 330.183594 779.363281 329.492188 C 783.675781 331.515625 787.992188 332.601562 792.972656 330.535156 C 784.664062 298.746094 735.496094 306.691406 715.613281 322.800781 C 721.925781 322.203125 729.8125 316.410156 734.953125 318.933594 C 724.257812 321.957031 712.550781 327.183594 701.433594 331.824219 C 690.835938 336.246094 677.910156 340.046875 673.066406 347.296875 C 691.078125 334.964844 724.019531 328.90625 749.136719 324.089844 C 752.75 323.398438 755.671875 321.28125 759.449219 321.511719 C 766.136719 321.917969 771.503906 325.375 776.679688 328.136719 C 768.289062 324.445312 756.898438 324.054688 747.847656 325.378906 C 715.660156 330.09375 662.796875 346.835938 643.414062 366.636719 C 636.253906 373.953125 631.390625 385.183594 629.230469 395.003906 C 623.769531 395.308594 622.675781 391.242188 618.917969 389.847656 C 612.699219 393.941406 605.9375 397.5 602.15625 404.03125 C 603.898438 396.085938 604.738281 389.996094 606.023438 376.953125 C 607.507812 361.867188 616.792969 346.023438 617.628906 331.824219 C 619.085938 307.019531 607.074219 290.207031 591.839844 276.382812 C 599.898438 285.953125 612.203125 302.433594 615.046875 321.511719 C 616.03125 329.96875 613.007812 332.992188 613.757812 322.800781 C 611.265625 312.828125 607.871094 303.761719 600.867188 298.300781 C 604.183594 305.300781 609.664062 310.132812 609.890625 320.222656 C 599.464844 304.175781 583.761719 285.257812 564.765625 273.804688 C 534.957031 269.570312 505.539062 272.921875 480.960938 282.828125 C 472.457031 279.730469 465.882812 274.699219 456.464844 272.515625 C 456.066406 269.5 453.941406 267.1875 456.464844 264.777344 C 452.160156 263.269531 451.972656 263.785156 447.4375 260.910156 C 447.753906 253.464844 453.445312 244.605469 451.308594 238.992188 C 454.59375 239.59375 452.699219 235.222656 453.886719 232.542969 C 459.910156 218.929688 472.546875 204.070312 486.117188 196.441406 Z M 916.746094 553.597656 C 910.0625 539.648438 896.640625 532.441406 892.246094 516.203125 C 901.261719 529.109375 908.941406 543.347656 923.191406 551.015625 C 942.011719 542.1875 917.683594 501.546875 918.035156 482.679688 C 920.398438 496.746094 931.546875 516.78125 933.503906 535.546875 C 934.039062 540.648438 931.691406 545.972656 932.214844 551.019531 C 933.8125 566.402344 944.34375 579.019531 950.265625 590.988281 C 950.261719 590.976562 955.261719 595.222656 950.265625 594.855469 C 946.242188 591.171875 932.421875 579.519531 928.347656 567.78125 C 927.738281 562.46875 931.816406 569.019531 932.214844 563.910156 C 932.214844 560.472656 932.214844 557.035156 932.214844 553.597656 C 926.824219 551.75 922.707031 552.328125 916.746094 553.597656 Z M 938.664062 558.753906 C 937.410156 558.71875 937.664062 557.175781 937.371094 556.175781 C 944.257812 568.199219 949.457031 581.910156 956.710938 593.566406 C 951.121094 587.375 941.824219 572.34375 938.664062 558.753906 Z M 930.925781 514.914062 C 941.164062 517.152344 953.792969 528.144531 969.605469 529.097656 C 954.269531 531.960938 942.277344 520.332031 930.925781 514.914062 Z M 580.238281 303.460938 C 584.894531 307.824219 590.128906 311.621094 594.417969 316.351562 C 586.820312 313.625 577.984375 300.992188 566.054688 298.300781 C 578.070312 307.347656 591.261719 315.210938 596.996094 330.535156 C 588.925781 324.421875 583.980469 315.1875 576.367188 308.617188 C 582.105469 317.921875 589.632812 325.4375 591.839844 338.273438 C 579.210938 313.941406 558.226562 297.964844 535.109375 284.117188 C 532.800781 286.101562 541.449219 288.019531 542.847656 290.566406 C 540.113281 290.921875 525.867188 279.8125 510.613281 282.828125 C 540.960938 291.164062 565.5625 305.238281 576.367188 333.113281 C 568.132812 316.421875 552.199219 307.429688 535.109375 299.589844 C 542.375 310.8125 564.746094 318.085938 563.476562 342.140625 C 562.074219 341.820312 562.601562 339.578125 560.898438 339.5625 C 561.503906 347.695312 572.921875 351.113281 575.078125 361.480469 C 579.019531 380.40625 568 392.273438 558.320312 400.160156 C 563.742188 393.492188 577.300781 380.210938 573.789062 364.058594 C 571.746094 354.636719 563.542969 353.789062 557.03125 347.296875 C 573.125 363.40625 563.191406 391.785156 545.425781 398.871094 C 546.117188 404.433594 550.234375 401.664062 554.449219 401.449219 C 557.464844 400.929688 549.90625 404.175781 546.714844 404.03125 C 543.273438 403.871094 540.785156 400.40625 535.109375 397.582031 C 530.90625 395.492188 525.867188 395.253906 522.21875 393.714844 C 521.308594 393.332031 519.640625 390.277344 518.351562 389.847656 C 516.074219 389.085938 513.050781 390.480469 510.613281 389.847656 C 491.097656 384.777344 483.554688 376.011719 473.226562 360.191406 C 463.988281 346.046875 448.238281 318.160156 447.4375 299.589844 C 447.332031 297.167969 448.953125 294.117188 448.726562 291.855469 C 448.324219 287.839844 443.886719 275.242188 446.148438 266.066406 C 453.222656 265.871094 453.402344 272.566406 456.464844 276.382812 C 466.9375 277.515625 473.667969 282.386719 480.960938 286.699219 C 486.753906 284.339844 496.445312 274.980469 502.878906 281.539062 C 519.980469 272.59375 536.214844 276.605469 555.742188 275.09375 C 557.445312 278.117188 561.296875 278.992188 562.1875 282.828125 C 579.507812 276.691406 589.121094 298.242188 598.289062 308.617188 C 595.5625 311.253906 591.957031 303.839844 587.972656 303.460938 C 593.632812 310.679688 584.605469 304.214844 580.238281 303.460938 Z M 464.199219 199.019531 C 461.9375 207.941406 443.90625 212.242188 434.546875 218.363281 C 438.519531 211.148438 454.664062 204.964844 464.199219 199.019531 Z M 260.488281 395.003906 C 263.710938 395.894531 258.097656 398.445312 259.199219 401.449219 C 262.472656 399.132812 263.292969 394.367188 265.648438 391.136719 C 266.050781 396.886719 256.355469 414.808594 254.042969 425.949219 C 265.414062 392.40625 282.597656 362.625 303.035156 335.695312 C 342.164062 284.140625 388.761719 238.359375 455.175781 213.203125 C 450.859375 223.003906 438.914062 224.398438 430.675781 228.675781 C 406.140625 241.425781 381.585938 258.394531 361.054688 276.382812 C 385.625 258.832031 411.003906 242.097656 438.414062 227.386719 C 438.210938 234.9375 428.34375 243.949219 425.519531 253.175781 C 434.582031 243.753906 436.496094 227.191406 450.015625 222.230469 C 447.042969 229.140625 442.953125 234.933594 439.703125 241.570312 C 440.28125 245.296875 445.25 236.230469 446.148438 240.28125 C 448.015625 264.496094 432.152344 270.980469 421.652344 282.828125 C 423.414062 284.921875 427.179688 278.117188 430.675781 277.671875 C 435.371094 280.285156 439.71875 283.242188 443.570312 286.699219 C 443.152344 292.722656 445.546875 301.566406 439.703125 302.171875 C 450.816406 304.808594 447.066406 322.3125 453.886719 329.246094 C 454.226562 333.457031 448.882812 331.980469 448.726562 335.695312 C 449.640625 338.6875 454.777344 332.390625 456.464844 335.695312 C 457.480469 342.410156 462.585938 345.042969 462.910156 352.457031 C 472.058594 360.066406 477.132812 371.753906 482.25 383.398438 C 471.113281 382.933594 469.578125 372.859375 464.199219 366.636719 C 461.632812 375.671875 473.945312 380.945312 477.089844 388.558594 C 477.671875 390.664062 470.0625 390.664062 470.644531 388.558594 C 468.921875 394.570312 465.566406 398.949219 456.464844 397.582031 C 438.027344 413.460938 411.132812 418.503906 393.285156 434.972656 C 386.15625 441.554688 381.460938 450.554688 373.949219 456.894531 C 362.378906 457.359375 357.574219 464.585938 357.1875 476.234375 C 345.832031 488.59375 335.480469 497.855469 326.242188 514.914062 C 322.542969 521.753906 317.269531 530.246094 315.929688 536.835938 C 314.164062 545.496094 314.605469 551.070312 309.484375 557.464844 C 296.167969 558.644531 278.957031 571.34375 270.804688 558.753906 C 268.929688 560.746094 264.203125 559.890625 260.488281 560.042969 C 255.023438 547.460938 248.652344 539.722656 248.886719 523.941406 C 245.945312 525.726562 248.40625 532.914062 247.59375 536.835938 C 245.378906 533.199219 246 533.839844 242.4375 532.964844 C 240.632812 506.660156 245.832031 487.367188 247.59375 464.628906 C 239.25 481.101562 236.757812 504.632812 237.28125 532.964844 C 232.136719 534.242188 233.398438 529.113281 228.257812 530.386719 C 228.121094 474.378906 241.847656 432.234375 260.488281 395.003906 Z M 379.105469 801.152344 C 330.601562 783.191406 295.121094 748.964844 272.09375 703.160156 C 247.9375 655.109375 228.5 603.394531 228.257812 535.542969 C 242.0625 540.855469 236.023438 561.332031 238.570312 576.804688 C 241.0625 591.9375 246.722656 607.066406 248.886719 619.351562 C 242.75 608.300781 239.726562 594.128906 237.28125 579.382812 C 236.726562 604.105469 245.601562 627.699219 252.753906 649.007812 C 271.371094 704.460938 308.035156 760.988281 359.765625 783.101562 C 364.945312 785.316406 370.652344 785.839844 376.527344 788.261719 C 384.527344 791.554688 392.804688 800.101562 406.179688 795.996094 C 401.503906 804.679688 384.570312 795.113281 379.105469 801.152344 Z M 314.640625 722.503906 C 332.496094 740.199219 363.113281 768.9375 402.3125 774.078125 C 362.277344 772.855469 335.371094 747.328125 314.640625 722.503906 Z M 393.289062 758.605469 C 410.070312 762.640625 442.46875 772.777344 448.726562 748.289062 C 458.546875 778.554688 405.894531 773.503906 393.289062 758.605469 Z M 452.597656 756.027344 C 459.289062 774.445312 429.804688 782.199219 416.496094 772.789062 C 427.902344 777.476562 454.984375 776.597656 452.597656 756.027344 Z M 426.808594 797.285156 C 422.71875 800.5 417.9375 803.027344 411.335938 803.730469 C 415.429688 800.515625 420.210938 797.992188 426.808594 797.285156 Z M 411.339844 807.601562 C 421.328125 804.269531 432.070312 801.683594 437.125 793.417969 C 436.777344 800.722656 422.378906 810.871094 411.339844 807.601562 Z M 426.808594 811.46875 C 444.941406 807.253906 453.828125 793.789062 455.175781 772.789062 C 456.730469 791.539062 449.0625 812.230469 426.808594 811.46875 Z M 447.4375 741.84375 C 448.070312 745.910156 445.117188 746.394531 446.148438 750.867188 C 438.109375 761.238281 414.980469 764.425781 402.3125 756.027344 C 401.601562 753.167969 404.773438 754.191406 404.890625 752.15625 C 387.441406 744.25 362.484375 743.851562 350.742188 730.238281 C 330.300781 723.28125 306.472656 699.234375 295.300781 677.375 C 292.855469 672.585938 291.695312 672.746094 291.433594 664.480469 C 279.847656 643.832031 269.890625 621.554688 264.359375 594.855469 C 265.015625 618.699219 276.636719 642.746094 283.695312 664.480469 C 267 636.21875 251.960938 592.988281 246.308594 556.175781 C 245.46875 550.710938 239.023438 540.367188 250.175781 539.414062 C 252.855469 547.476562 254.523438 556.554688 259.199219 562.621094 C 266.886719 565.332031 271.804688 563.503906 277.25 569.066406 C 281.988281 568.21875 285.917969 566.5625 291.433594 566.488281 C 293.949219 580.3125 289.894531 598.378906 291.433594 615.484375 C 294.164062 599.304688 291.804688 578.035156 296.589844 563.910156 C 300.667969 564.121094 300.898438 560.484375 305.613281 561.332031 C 309.949219 560.007812 307.621094 565.339844 308.195312 567.777344 C 322.59375 534.902344 329.289062 494.320312 362.34375 480.101562 C 356.472656 472.328125 362.949219 460.84375 372.660156 460.761719 C 378.859375 466.046875 372.539062 473.210938 368.789062 476.234375 C 374.199219 475.625 375.832031 471.238281 379.105469 468.496094 C 377.675781 466.058594 377.460938 462.40625 376.527344 459.472656 C 385.761719 448.984375 395.855469 433.140625 411.335938 424.660156 C 418.328125 420.828125 428.636719 417.6875 437.125 413.054688 C 451.875 405.007812 460.042969 395.367188 477.09375 404.03125 C 479.652344 395.84375 487.144531 392.59375 493.851562 388.558594 C 498.730469 391.414062 499.800781 398.082031 502.878906 402.738281 C 498.867188 404.144531 496.871094 407.554688 492.5625 405.320312 C 493.1875 409.789062 497.457031 408.609375 500.300781 407.898438 C 504.898438 406.910156 502.59375 399.019531 505.457031 396.292969 C 514.597656 395.390625 524.898438 399.828125 533.820312 404.027344 C 547.832031 410.628906 559.878906 418.253906 569.921875 428.527344 C 575.398438 436.765625 566.667969 426.433594 563.476562 424.660156 C 557.050781 416.042969 545.015625 413.035156 535.109375 407.898438 C 540.011719 416.402344 556.503906 424.738281 557.03125 441.421875 C 557.273438 449.171875 553.226562 455.09375 550.582031 463.339844 C 542.523438 464.847656 541.890625 468.582031 532.53125 465.917969 C 531.429688 470.027344 533.65625 470.8125 535.109375 472.363281 C 538.390625 472.371094 546.539062 473.097656 549.292969 469.785156 C 547.238281 478.058594 521.867188 474.15625 522.21875 489.125 C 519.878906 482.457031 528.335938 475.496094 533.824219 472.363281 C 528.476562 472.300781 519.910156 477.53125 517.0625 482.679688 C 512.824219 490.335938 514.25 503.449219 519.640625 511.046875 C 527.589844 522.25 544.679688 521.359375 551.871094 531.675781 C 554.175781 531.3125 554.519531 532.894531 553.164062 532.964844 C 540.964844 520.011719 519.4375 522.90625 508.035156 534.253906 C 495.289062 531.800781 485.277344 542.140625 479.671875 551.015625 C 479.671875 555.3125 479.671875 559.613281 479.671875 563.910156 C 481.585938 561.527344 482.140625 557.785156 482.25 553.59375 C 485.179688 554.179688 480.902344 565.804688 486.117188 569.066406 C 487.453125 552.351562 490.226562 537.074219 505.457031 534.253906 C 498.769531 539.867188 489.539062 546.875 489.984375 557.464844 C 490.320312 565.402344 497.015625 567.84375 499.011719 575.515625 C 495.796875 575.984375 492.265625 580.570312 488.695312 580.671875 C 483.957031 580.808594 479.65625 573.894531 474.515625 572.9375 C 458.304688 569.917969 435.65625 587.960938 415.207031 589.699219 C 408.613281 590.257812 400.578125 587.117188 395.867188 588.40625 C 385.417969 591.269531 381.605469 605.933594 372.660156 609.039062 C 381.078125 609.101562 386.574219 595.585938 398.445312 594.855469 C 390.894531 599.765625 382.792969 604.132812 377.816406 611.617188 C 401.316406 602.019531 434.371094 590.8125 461.621094 580.671875 C 445.882812 589.429688 425.363281 593.40625 412.628906 605.167969 C 421.929688 598.144531 437.324219 604.058594 450.015625 602.589844 C 455.085938 602.003906 479.277344 590.65625 480.960938 585.828125 C 481.40625 584.546875 478.109375 584.566406 477.09375 584.539062 C 488.859375 582.636719 477.433594 589.648438 474.515625 592.277344 C 469.910156 596.421875 464.375 599.894531 461.621094 601.300781 C 484.789062 592.664062 503.449219 568.351562 533.824219 562.621094 C 538.253906 560.175781 540.378906 555.425781 542.847656 551.015625 C 568.375 534.027344 598.625 520.207031 598.289062 481.390625 C 598.089844 458.667969 581.183594 430.859375 599.578125 411.765625 C 599.941406 409.460938 598.359375 409.121094 598.289062 410.476562 C 597.460938 408.773438 604.585938 405.152344 608.601562 401.449219 C 611.898438 402.15625 610.046875 405.359375 615.046875 406.609375 C 618.046875 401.816406 621.503906 401.644531 627.941406 402.738281 C 630.316406 408.277344 622.992188 425.796875 618.917969 420.789062 C 617.546875 436.34375 624.226562 443.84375 626.652344 455.605469 C 626.425781 444.613281 612.964844 422.789062 629.230469 415.632812 C 631.441406 438.515625 640.746094 462.800781 658.882812 476.234375 C 664.636719 480.492188 675.871094 486.601562 684.671875 487.835938 C 689.332031 488.492188 695.375 486.585938 700.140625 486.546875 C 711.449219 486.460938 722.746094 489.050781 733.664062 487.835938 C 762.644531 484.617188 791.570312 472.464844 803.285156 455.605469 C 816.179688 437.050781 801.480469 417.636719 786.527344 407.898438 C 786.609375 415.191406 794.15625 420.710938 795.550781 428.527344 C 798.503906 445.085938 790.371094 457.691406 781.367188 465.917969 C 779.253906 464.136719 785.65625 459.964844 787.816406 458.183594 C 787.757812 455.976562 788.773438 454.84375 790.394531 454.3125 C 797.859375 441.300781 792.351562 423.742188 786.523438 413.054688 C 782.597656 420.300781 780.957031 429.835938 774.921875 434.972656 C 774.742188 429.609375 783.808594 422.390625 782.65625 411.765625 C 777.5 419.503906 771.054688 425.949219 763.316406 431.105469 C 766.894531 424.785156 778.859375 415.710938 782.65625 405.316406 C 776.535156 407.378906 771.863281 422.019531 760.738281 423.371094 C 772.15625 413.296875 782.078125 401.730469 787.8125 385.976562 C 794.804688 391.449219 800.324219 398.394531 812.3125 398.871094 C 828.683594 423.75 815.691406 461.421875 791.683594 471.074219 C 817.707031 469.675781 833.160156 418.898438 813.601562 395.003906 C 806.207031 395.949219 804.101562 391.609375 798.128906 391.136719 C 799.074219 388.839844 800.472656 390.949219 801.996094 391.136719 C 803.128906 386.957031 791.15625 384.8125 790.394531 378.242188 C 796.042969 382.90625 800.933594 388.332031 808.441406 391.136719 C 818.066406 386.144531 821.046875 374.511719 827.78125 366.636719 C 828.242188 373.5625 819.324219 382.230469 816.179688 389.84375 C 822.886719 385.808594 827.066406 379.242188 830.359375 371.792969 C 819.59375 398.035156 853.035156 420.214844 856.148438 447.867188 C 860.152344 419.4375 807.726562 385.765625 847.121094 364.058594 C 859.941406 385.191406 876.574219 402.511719 899.984375 413.054688 C 900.222656 414.152344 899.480469 414.269531 898.695312 414.34375 C 876.78125 420.339844 868.570312 443.957031 856.148438 465.917969 C 845.675781 484.425781 836.171875 495.648438 838.097656 518.78125 C 840.125 543.128906 858.078125 554.03125 876.777344 565.199219 C 874.929688 558.347656 867.144531 558.304688 862.59375 554.882812 C 850.507812 545.796875 839.691406 530.570312 839.386719 513.625 C 839.078125 496.53125 849.078125 481.589844 858.726562 464.628906 C 871.355469 442.433594 878.714844 420.101562 902.5625 414.34375 C 917.425781 424.835938 908.515625 459.105469 916.746094 476.234375 C 913.925781 473.453125 913.976562 476.5625 914.164062 480.101562 C 911.542969 468.0625 908.507812 453.71875 907.71875 440.132812 C 907.292969 432.792969 910.320312 423.984375 903.851562 419.5 C 899.808594 418.898438 900.214844 422.742188 898.695312 424.660156 C 895.835938 425.371094 896.859375 422.195312 894.824219 422.082031 C 878.222656 434.96875 851.667969 481.355469 848.410156 511.046875 C 846.640625 527.203125 854.703125 550.578125 870.328125 552.304688 C 878.28125 553.1875 883.183594 551.433594 885.800781 544.570312 C 887.210938 538.863281 883.617188 538.15625 883.222656 534.253906 C 885.078125 532.089844 887.039062 527.289062 889.667969 522.652344 C 894.007812 530.28125 900.925781 535.375 906.429688 541.992188 C 912.097656 548.800781 914.480469 556.570312 919.324219 563.910156 C 925.890625 573.871094 936.265625 581.355469 941.242188 592.277344 C 938.777344 594.65625 935.765625 586.640625 932.214844 585.828125 C 932.609375 591.882812 937.523438 593.414062 936.085938 601.300781 C 923.304688 590.875 916.941406 574.03125 906.429688 561.332031 C 907.59375 548.136719 901.394531 542.300781 894.828125 536.835938 C 892.0625 544.78125 897.207031 555.921875 903.851562 558.753906 C 907.488281 571.019531 917.292969 577.117188 920.613281 589.699219 C 914.871094 588.683594 912.039062 590.578125 909.007812 592.277344 C 910.351562 587.863281 904.355469 580.957031 899.984375 578.09375 C 902.726562 582.660156 904.253906 588.4375 907.71875 592.277344 C 905.0625 597.175781 903.804688 598.484375 905.140625 605.171875 C 905.953125 597.347656 921.863281 586.117188 925.769531 597.433594 C 921.800781 598.394531 923.292969 593.894531 919.324219 594.855469 C 912.914062 594.65625 911.847656 601.671875 907.71875 605.171875 C 905.289062 607.230469 903.1875 603.109375 903.851562 610.328125 C 890.242188 604.167969 887.660156 586.976562 870.328125 584.539062 C 869.621094 586.640625 873.0625 590.128906 874.199219 594.855469 C 874.269531 595.152344 871.683594 598.230469 875.488281 597.433594 C 869.226562 604.496094 859.667969 608.261719 856.148438 618.0625 C 851.835938 616.789062 850.144531 612.894531 845.832031 611.617188 C 844.140625 608.152344 835.867188 611.265625 835.519531 606.460938 C 840.503906 605.769531 841.8125 608.761719 847.121094 607.75 C 848.238281 594.601562 836.96875 593.835938 835.519531 583.25 C 833.960938 586.578125 836.296875 597.046875 838.097656 601.300781 C 834.828125 608.351562 831.1875 611.714844 823.964844 615.460938 C 833.101562 612.109375 848.300781 616.960938 854.859375 623.222656 C 847.5625 624.640625 845.5625 616.425781 838.097656 615.484375 C 823.742188 613.675781 818.898438 626.199219 809.734375 633.535156 C 814.988281 625.46875 818.480469 615.636719 826.492188 610.328125 C 818.886719 611.332031 812.058594 624.246094 808.441406 633.535156 C 801.957031 632.984375 793.324219 625.820312 787.8125 632.246094 C 783.992188 618.675781 775.710938 598.941406 767.1875 585.828125 C 768.929688 597.25 783.785156 612.5625 782.65625 629.667969 C 782.273438 635.464844 777.578125 639.527344 777.5 646.429688 C 771.652344 643.808594 762.816406 645.296875 758.160156 647.71875 C 753.410156 616.367188 741.21875 592.457031 709.167969 588.40625 C 724.003906 582.648438 738.859375 597.902344 749.136719 605.167969 C 749.09375 600.027344 738.441406 594.394531 733.664062 589.695312 C 730.472656 589.859375 731.472656 588.117188 733.664062 588.40625 C 748.148438 600.136719 764.542969 609.960938 769.765625 630.957031 C 771.960938 622.292969 765.660156 611.007812 760.738281 605.167969 C 766.996094 607.09375 774.476562 618.925781 773.632812 632.246094 C 782.183594 592.382812 749.566406 566.757812 709.167969 571.644531 C 721.957031 566.703125 745.625 568.292969 754.292969 575.515625 C 749.265625 568.507812 738.96875 566.769531 727.21875 566.488281 C 732.757812 561.492188 745.125 564.800781 753.003906 565.199219 C 748.976562 561.492188 741.378906 561.351562 733.664062 561.332031 C 733.984375 559.929688 736.226562 560.457031 736.242188 558.753906 C 719.554688 558.824219 710.867188 566.898438 696.273438 569.066406 C 698.316406 562.085938 698.355469 553.097656 700.144531 545.859375 C 695.316406 551.777344 695.378906 562.585938 693.695312 571.648438 C 676.367188 575.09375 669.871094 586.910156 653.726562 588.40625 C 635.625 590.089844 619.125 575.246094 600.867188 575.515625 C 592.933594 575.632812 584.480469 581.90625 576.371094 581.960938 C 571.84375 581.992188 567.804688 578.328125 563.476562 578.09375 C 554.457031 577.601562 548.152344 583.964844 538.980469 583.25 C 545.820312 590.238281 556.664062 578.691406 564.765625 583.25 C 550.492188 597.773438 521.277344 597.351562 504.167969 609.039062 C 515.6875 607.390625 526.550781 608.8125 535.113281 606.460938 C 547.890625 602.949219 557.945312 590.175781 572.503906 585.832031 C 581.851562 583.039062 593.828125 581.160156 606.023438 581.960938 C 620.582031 582.917969 627.515625 589.4375 642.125 594.855469 C 645.191406 595.992188 649.832031 596.125 653.726562 594.855469 C 671.597656 589.019531 689.554688 574.367188 707.878906 571.648438 C 689.628906 574.519531 672.4375 592.457031 655.015625 598.722656 C 641.589844 603.554688 624.789062 586.59375 611.179688 584.539062 C 585.867188 580.722656 564.285156 591.710938 550.585938 601.300781 C 547.632812 603.371094 543.769531 607.773438 540.269531 609.039062 C 528.34375 613.355469 514.730469 608.609375 500.300781 612.90625 C 496.367188 612.976562 497.210938 608.261719 492.566406 609.039062 C 471.433594 614.980469 457.738281 628.359375 438.414062 636.113281 C 442.171875 631.273438 446.734375 627.242188 450.019531 621.933594 C 439.8125 622.386719 429.507812 629.140625 416.496094 634.824219 C 407.40625 638.800781 396.722656 645.398438 390.710938 645.140625 C 378.273438 644.601562 373.566406 628.707031 358.476562 636.113281 C 363.640625 642.128906 371.285156 645.65625 377.816406 650.296875 C 373.902344 652.441406 366.972656 646.570312 361.058594 646.429688 C 366.058594 649.921875 373.828125 654.945312 380.394531 652.875 C 367.3125 659.597656 347.355469 642.039062 330.113281 647.71875 C 344.277344 650.035156 361.964844 657.265625 375.238281 664.480469 C 385.246094 662.988281 394.902344 657.6875 404.894531 663.191406 C 405.015625 669.757812 402.191406 673.386719 402.316406 679.953125 C 407.488281 679.109375 404.6875 670.289062 411.339844 670.925781 C 411.203125 680.914062 400.492188 701.523438 417.785156 705.738281 C 420.503906 702.441406 417.957031 693.875 421.652344 691.558594 C 423.152344 691.765625 423.949219 691.273438 424.230469 690.269531 C 434.636719 691.46875 440.476562 697.230469 443.570312 705.738281 C 429.417969 716.464844 402.929688 708.675781 403.601562 688.980469 C 399.992188 702.917969 413.25 711.125 426.8125 712.1875 C 424.707031 715.242188 419.242188 714.933594 416.496094 717.34375 C 431.4375 721.957031 442.84375 711.894531 453.886719 708.320312 C 453.648438 709.417969 454.390625 709.535156 455.175781 709.609375 C 470.621094 716.820312 458.996094 738.957031 447.4375 741.84375 Z M 920.613281 597.433594 C 913.351562 601.777344 910.046875 610.078125 903.851562 615.484375 C 895.308594 615 893.984375 607.300781 887.089844 605.171875 C 891.492188 603.816406 897.417969 612.007812 902.5625 614.195312 C 909.597656 609.625 909.234375 597.660156 920.613281 597.433594 Z M 885.800781 602.589844 C 872.324219 601.722656 863.960938 614.414062 857.4375 624.511719 C 858.660156 614.753906 869.722656 597.574219 885.800781 602.589844 Z M 856.148438 745.710938 C 853.375 741.585938 853.175781 723.15625 854.859375 712.1875 C 857.855469 720.796875 855.296875 734.957031 856.148438 745.710938 Z M 844.542969 835.964844 C 840.746094 839.585938 834.882812 844.703125 836.808594 850.148438 C 834.246094 850.132812 835.167969 846.632812 831.652344 847.570312 C 833.863281 845.484375 834.851562 842.179688 834.230469 837.253906 C 831.410156 837.445312 831.460938 840.503906 831.652344 843.703125 C 827.964844 843.523438 829.292969 838.324219 829.070312 834.675781 C 824.703125 835.464844 827.003906 842.925781 821.335938 842.414062 C 813.929688 837.722656 815.679688 820.941406 818.757812 812.757812 C 832.765625 812.503906 841.835938 817.183594 856.148438 816.625 C 853.648438 828.742188 849.097656 838.800781 843.253906 847.570312 C 839.945312 845.003906 846.71875 841.667969 844.542969 835.964844 Z M 792.972656 656.746094 C 795.878906 655.785156 793.476562 649.511719 794.261719 646.429688 C 802.914062 654.222656 813.667969 689.507812 787.816406 685.109375 C 777.882812 675.996094 781.738281 653.164062 790.394531 645.140625 C 795.421875 643.945312 788.691406 654.417969 792.972656 656.746094 Z M 782.65625 811.46875 C 788.234375 812.480469 798.21875 816.386719 809.734375 815.335938 C 808.46875 828.683594 804.667969 839.496094 798.128906 847.570312 C 794.996094 845.546875 793.300781 842.085938 792.972656 837.253906 C 787.636719 840.507812 794.6875 843.28125 792.972656 850.148438 C 780.8125 851.433594 779.308594 825.828125 782.65625 811.46875 Z M 790.394531 857.886719 C 802.261719 858.148438 804.472656 848.753906 812.3125 844.992188 C 808.566406 856.507812 785.777344 866.175781 780.078125 850.148438 C 782.976562 848.179688 786.414062 856.660156 790.394531 857.886719 Z M 811.023438 672.21875 C 808.148438 662.226562 808.46875 650.152344 813.601562 642.5625 C 817.980469 652.59375 817.882812 627.105469 818.757812 641.273438 C 823.859375 639.066406 821.988281 629.890625 827.78125 628.378906 C 834.972656 635.722656 831.117188 625.371094 840.675781 629.667969 C 839.21875 625.96875 835.148438 624.882812 830.363281 624.511719 C 832.703125 621.015625 838.140625 625.226562 840.675781 625.800781 C 843.21875 637.035156 854.917969 647.886719 854.859375 665.769531 C 840.832031 668.210938 819.632812 680.230469 811.023438 672.21875 Z M 702.71875 672.21875 C 699.414062 668.792969 700.648438 674.46875 698.851562 676.085938 C 696.769531 680.621094 701.179688 658.898438 701.429688 665.769531 C 700.902344 668.875 703.785156 668.574219 702.71875 672.21875 Z M 705.300781 650.296875 C 708.074219 653.96875 709.207031 659.28125 710.457031 664.480469 C 712.785156 659.957031 709.542969 649.960938 707.878906 645.140625 C 712.789062 644.984375 719.890625 653.734375 718.191406 664.480469 C 712.457031 666.484375 706.292969 668.054688 705.300781 674.796875 C 703.785156 670.234375 706.3125 658.644531 705.300781 650.296875 Z M 725.929688 636.113281 C 732.996094 645.867188 733.328125 658.601562 725.929688 667.058594 C 720.105469 658.699219 721.953125 642.667969 713.035156 637.40625 C 718.027344 635.460938 724.054688 643.546875 728.507812 646.429688 C 728.433594 642.203125 724.839844 641.5 725.929688 636.113281 Z M 732.375 614.195312 C 742.726562 618.035156 755.046875 631.054688 754.292969 650.296875 C 751.890625 646.253906 750.566406 641.128906 747.847656 637.40625 C 746.082031 640.09375 752.296875 645.796875 750.425781 652.878906 C 746.421875 652.742188 746.746094 656.933594 741.398438 655.457031 C 739.417969 640.246094 735.785156 626.6875 728.507812 616.773438 C 732.582031 615.320312 736.882812 624.699219 741.398438 627.089844 C 738.792969 622.390625 736.964844 616.910156 732.375 614.195312 Z M 742.6875 667.058594 C 751.417969 669.933594 750.734375 682.222656 754.292969 690.269531 C 743.054688 701.777344 723.753906 689.886719 732.375 670.929688 C 733.945312 673.308594 737.226562 677.214844 737.53125 670.929688 C 738.933594 671.246094 738.40625 673.492188 740.109375 673.507812 C 742.023438 672.410156 742.882812 670.261719 742.6875 667.058594 Z M 755.582031 805.023438 C 762.042969 806.726562 766.175781 810.757812 774.921875 810.179688 C 772.070312 821.511719 768.539062 832.164062 762.027344 839.835938 C 754.875 841.398438 754.195312 836.492188 750.425781 834.675781 C 750.0625 822.710938 751.332031 812.378906 755.582031 805.023438 Z M 737.53125 654.167969 C 732.726562 642.941406 729.617188 634.507812 725.929688 624.511719 C 733.292969 630.898438 738.191406 639.753906 737.53125 654.167969 Z M 715.613281 703.160156 C 704.710938 704.386719 700.703125 692.585938 704.007812 683.820312 C 711.804688 686.34375 711.816406 696.644531 715.613281 703.160156 Z M 706.589844 792.128906 C 713.136719 794.601562 718.34375 798.421875 722.058594 803.730469 C 722.421875 814.839844 720.054688 823.214844 713.035156 826.941406 C 694.964844 826.292969 693.890625 799.726562 706.589844 792.128906 Z M 707.878906 838.542969 C 714.757812 838.554688 716.054688 834.585938 723.351562 833.386719 C 726.671875 840.507812 725.859375 843.1875 720.769531 848.859375 C 702.25 847.84375 694.65625 837.3125 683.382812 828.230469 C 673.074219 819.921875 666.988281 817.589844 661.464844 806.3125 C 655.105469 793.328125 666.355469 809.992188 671.777344 815.335938 C 678.332031 821.796875 695.386719 838.527344 707.878906 838.542969 Z M 722.058594 700.582031 C 716.074219 697.25 710.097656 684.082031 714.324219 678.664062 C 715.183594 678.664062 716.042969 678.664062 716.902344 678.664062 C 723.636719 681.929688 733.964844 697.507812 722.058594 700.582031 Z M 733.664062 801.152344 C 736.039062 807.300781 740.710938 809.171875 746.554688 808.890625 C 747.574219 814.554688 743.011719 824.859375 740.109375 830.808594 C 731.152344 832.460938 729.523438 826.785156 725.929688 823.074219 C 727.746094 815.007812 727.101562 804.476562 733.664062 801.152344 Z M 755.582031 846.28125 C 764.390625 846.867188 769.234375 839.578125 776.210938 835.964844 C 772.6875 843.617188 763.28125 845.386719 758.160156 851.4375 C 750.441406 850.5625 747.867188 844.542969 742.6875 841.125 C 748.648438 838.152344 749.792969 845.894531 755.582031 846.28125 Z M 759.449219 687.691406 C 758.140625 681.261719 754.964844 676.703125 755.582031 668.347656 C 758.765625 662.855469 761.140625 663.019531 767.1875 659.324219 C 775.375 662.738281 774.125 675.59375 777.5 683.820312 C 775.230469 691.707031 766.371094 690.457031 759.449219 687.691406 Z M 495.144531 614.195312 C 484.738281 618.402344 473.203125 621.480469 462.910156 625.800781 C 471.328125 620.347656 482.132812 610.800781 495.144531 614.195312 Z M 438.414062 655.457031 C 441.300781 635.988281 471.078125 625.378906 489.984375 621.933594 C 470.492188 630.800781 448.796875 637.472656 438.414062 655.457031 Z M 504.167969 1062.894531 C 493.335938 1024.351562 512.628906 977.179688 505.457031 933.957031 C 517.59375 966.210938 511.289062 1029.144531 504.167969 1062.894531 Z M 626.652344 896.566406 C 626.859375 898.078125 629.003906 897.652344 630.519531 897.855469 C 619.714844 899.164062 592.714844 901.339844 580.238281 896.566406 C 596.886719 899.972656 622.269531 892.203125 643.414062 896.566406 C 639.355469 900.117188 633.277344 894.726562 626.652344 896.566406 Z M 932.214844 850.148438 C 933.171875 840.34375 948.535156 826.945312 948.976562 816.625 C 949.183594 815.113281 951.328125 815.539062 952.84375 815.335938 C 947.964844 828.9375 940.53125 839.984375 932.214844 850.148438 Z M 936.085938 899.144531 C 938.230469 903.035156 941.621094 912.554688 942.53125 919.773438 C 943.128906 924.519531 943.992188 932.464844 941.242188 933.957031 C 942.398438 919.476562 936.539062 912.015625 936.085938 899.144531 Z M 959.292969 766.339844 C 966.128906 778.289062 959.226562 797.796875 956.714844 808.890625 C 953.703125 808.890625 950.695312 808.890625 947.6875 808.890625 C 950.925781 794.078125 958.035156 783.132812 959.292969 766.339844 Z M 937.375 798.574219 C 944.964844 792.414062 951.90625 785.601562 954.132812 774.078125 C 954.980469 784.820312 948.867188 799.746094 942.53125 807.601562 C 941.042969 801.78125 950.199219 795.519531 950.265625 786.96875 C 946.925781 791.796875 941.933594 794.972656 938.664062 799.863281 C 936.359375 800.226562 936.015625 798.644531 937.375 798.574219 Z M 938.664062 817.914062 C 940.550781 822.421875 931.867188 827.417969 930.925781 833.386719 C 929.171875 833.765625 934.652344 820.246094 938.664062 817.914062 Z M 945.109375 816.625 C 943.046875 813.007812 939.304688 818.4375 934.796875 816.625 C 934.195312 811.703125 944.867188 814.183594 946.398438 815.335938 C 942.300781 828.429688 936.175781 839.496094 927.058594 847.570312 C 930.035156 834.214844 938.925781 826.773438 945.109375 816.625 Z M 919.324219 838.542969 C 918.96875 833.726562 927.765625 824.808594 927.058594 816.625 C 926.699219 812.441406 922.421875 813.105469 924.480469 808.890625 C 935.164062 814.796875 923.214844 831.316406 919.324219 838.542969 Z M 923.191406 776.65625 C 926.507812 778.96875 922.761719 789.113281 924.480469 789.550781 C 923.054688 792.128906 917.558594 787.980469 912.875 789.550781 C 915.742188 784.679688 914.210938 775.410156 923.191406 776.65625 Z M 909.007812 767.628906 C 912.089844 771.21875 910.03125 780.628906 907.71875 783.101562 C 905.804688 780.683594 909.777344 773.183594 909.007812 767.628906 Z M 906.429688 816.625 C 911.140625 817.5 915.804688 818.425781 921.902344 817.914062 C 917.027344 829.800781 908.167969 837.703125 903.851562 850.148438 C 900.96875 849.59375 903.328125 843.796875 902.5625 841.125 C 898.230469 839.800781 900.554688 845.132812 899.984375 847.570312 C 893.527344 838.007812 904.738281 826.363281 906.429688 816.625 Z M 896.117188 859.175781 C 888.261719 871.519531 884.367188 887.828125 876.777344 900.433594 C 882.445312 895.761719 886.617188 886.410156 890.957031 878.515625 C 894.855469 871.429688 896.929688 859.59375 906.429688 861.753906 C 910.757812 863.597656 904.144531 871.441406 902.5625 877.226562 C 901.660156 880.535156 902.074219 883.601562 901.273438 886.25 C 911.089844 878.445312 911.296875 861.03125 923.191406 855.304688 C 932.140625 865.355469 914.410156 875.773438 918.035156 892.699219 C 921.792969 889.890625 922.585938 883.945312 924.480469 879.804688 C 926.613281 875.144531 928.988281 871.179688 930.925781 866.910156 C 931.914062 873.078125 924.804688 882.257812 927.058594 893.988281 C 931.292969 889.195312 933.542969 882.421875 936.082031 875.9375 C 938.234375 881.5625 933.71875 891.59375 932.214844 897.855469 C 935.875 910.527344 939.464844 923.269531 938.664062 940.40625 C 939.34375 942.390625 940.007812 940.488281 939.953125 939.113281 C 945.195312 941.214844 937.421875 942.933594 937.375 942.984375 C 933.460938 946.894531 929.355469 951.257812 916.746094 952.007812 C 920.050781 944.101562 920.289062 931.339844 912.875 927.511719 C 917.855469 933.539062 917.421875 945.734375 914.164062 953.296875 C 887.121094 964.007812 850.679688 969.214844 821.335938 958.457031 C 817.121094 959.265625 820.960938 956.382812 818.757812 954.585938 C 811.398438 948.597656 792.097656 949.882812 778.789062 948.140625 C 787.371094 959.105469 805.441406 949.835938 816.179688 955.878906 C 788.75 958.445312 768.835938 947.953125 746.558594 940.40625 C 734.101562 936.1875 722.273438 930.238281 711.746094 924.933594 C 721.296875 938.195312 742.320312 945.527344 764.605469 952.007812 C 784.472656 957.785156 806.71875 963.960938 826.492188 968.769531 C 852.542969 975.105469 882.65625 969.75 905.140625 962.324219 C 922.984375 956.429688 939.78125 957.800781 947.6875 944.273438 C 949.53125 953.152344 939.027344 954.042969 933.503906 955.875 C 926.507812 958.203125 918.296875 958.957031 911.585938 961.035156 C 889.054688 968.019531 873.101562 976.980469 841.964844 975.21875 C 813.15625 973.585938 787.691406 958.765625 764.605469 953.296875 C 752.140625 950.34375 742.480469 949.460938 731.085938 944.273438 C 705.371094 932.566406 679.746094 911.296875 648.570312 903.011719 C 647.351562 900.628906 655.949219 902.222656 651.148438 900.433594 C 642.484375 897.796875 662.390625 900.886719 653.726562 901.722656 C 669.089844 903.515625 684.1875 915.671875 698.851562 922.355469 C 687.992188 902.964844 654.597656 892.121094 625.363281 888.832031 C 623.484375 888.621094 620.746094 886.265625 621.492188 886.253906 C 610.871094 886.421875 599.804688 895.542969 584.105469 890.121094 C 571.117188 885.636719 563.117188 870.542969 560.898438 852.730469 C 558.484375 868.476562 569.085938 882.355469 580.234375 888.832031 C 564.164062 895.710938 558.25 868.082031 557.027344 850.148438 C 556.542969 843.0625 558.332031 835.585938 558.316406 829.519531 C 558.226562 793.945312 536.417969 765.53125 532.53125 736.6875 C 537.035156 735.316406 537.558594 742.355469 538.976562 745.710938 C 543.726562 756.9375 548.597656 773.25 553.160156 785.683594 C 549.9375 760.222656 537.28125 739.0625 524.796875 718.632812 C 512.359375 698.285156 499.484375 678.085938 483.539062 661.902344 C 489.691406 660.503906 494.984375 671.066406 501.589844 673.507812 C 503.460938 665.765625 492.402344 660.550781 484.828125 658.035156 C 491.511719 658.027344 500.734375 662.917969 506.746094 667.058594 C 514.527344 672.425781 521.824219 680.433594 524.796875 688.980469 C 520.15625 686.742188 517.253906 682.769531 513.191406 679.953125 C 514.898438 685.144531 524.230469 693.828125 531.242188 698.003906 C 533.898438 697.652344 532.457031 693.203125 535.109375 692.847656 C 533.722656 686.34375 525.953125 684.066406 522.21875 678.664062 C 517.574219 671.945312 515.964844 660.050781 501.589844 661.902344 C 494.480469 658.796875 507.445312 659.640625 510.613281 660.613281 C 520.320312 663.585938 529.722656 679.65625 544.136719 681.242188 C 565.964844 683.648438 580.476562 668.210938 584.105469 642.5625 C 587.1875 651.449219 580.148438 673.851562 573.789062 682.53125 C 567.121094 691.636719 556.257812 695.019531 540.269531 691.558594 C 549.152344 699.621094 565.925781 695.027344 572.5 688.980469 C 587.015625 675.628906 586.121094 644.777344 594.417969 627.089844 C 606.097656 630.050781 602.667969 643.878906 603.445312 655.457031 C 604.933594 677.675781 601.347656 701.8125 604.734375 725.082031 C 606.101562 734.488281 610.222656 743.777344 612.46875 753.445312 C 614.882812 763.839844 614.09375 774.875 616.335938 784.390625 C 621.332031 805.574219 635.128906 821.386719 644.703125 832.097656 C 636.355469 819.519531 626.113281 802.960938 626.652344 785.679688 C 625.140625 785.890625 625.5625 788.03125 625.363281 789.550781 C 617.566406 772.414062 614.183594 750.875 613.757812 726.371094 C 617.410156 726.160156 612.6875 734.316406 616.335938 734.105469 C 616.460938 721.507812 617.292969 697.054688 615.046875 682.53125 C 615.046875 676.085938 615.046875 669.636719 615.046875 663.191406 C 618.722656 706.792969 618.613281 754.179688 633.097656 786.96875 C 631.019531 764.382812 621.988281 739.246094 620.203125 710.898438 C 618.890625 689.992188 619.230469 669.140625 616.335938 649.007812 C 627.445312 665.554688 625.183594 688.980469 626.652344 710.898438 C 628.566406 739.476562 637.066406 768.691406 648.570312 793.417969 C 662.636719 823.652344 687.003906 857.078125 720.769531 868.199219 C 696.085938 856.785156 677.945312 838.820312 664.039062 816.625 C 680.914062 821.371094 694.035156 854.730469 719.480469 851.4375 C 724.367188 850.808594 725.308594 846.722656 729.796875 844.992188 C 734.398438 843.214844 738.804688 845.574219 743.976562 842.414062 C 744.761719 851.515625 752.820312 853.339844 758.160156 857.886719 C 767.023438 857.296875 769.527344 850.34375 773.632812 844.992188 C 777.699219 858.675781 794.972656 876.511719 805.863281 857.886719 C 808.929688 859.546875 806.945312 866.257812 811.023438 866.910156 C 810.851562 859.167969 806.550781 853.851562 812.3125 850.148438 C 817.738281 854.605469 819.054688 863.175781 825.203125 866.910156 C 821.527344 861.992188 822.191406 852.734375 816.179688 850.148438 C 824.175781 845.804688 829.730469 856.300781 836.808594 856.597656 C 845.59375 856.964844 847.601562 847.894531 856.148438 850.148438 C 849.609375 848.957031 840.75 865.730469 830.363281 856.597656 C 831.238281 863.492188 821.957031 879.992188 829.070312 888.832031 C 835.574219 885.449219 831.5625 871.550781 834.230469 864.332031 C 845.871094 866.714844 848.226562 853.726562 854.859375 855.308594 C 856.53125 859.050781 856.53125 864.457031 854.859375 868.199219 C 857.195312 868.242188 859.34375 861.714844 857.4375 861.753906 C 860.558594 858.714844 864.054688 866.246094 867.75 866.910156 C 875.644531 864.488281 883.398438 861.929688 887.089844 855.308594 C 886.449219 859.417969 878.984375 867.808594 869.039062 866.910156 C 877.757812 871.539062 862.304688 882.417969 867.75 891.410156 C 873.519531 877.40625 881.921875 866.039062 889.667969 854.019531 C 891.601562 855.953125 893.546875 857.875 896.117188 859.175781 Z M 863.882812 859.175781 C 873.683594 861.828125 880.542969 855.855469 888.378906 850.148438 C 884 858.691406 871.121094 864.164062 863.882812 859.175781 Z M 893.539062 814.046875 C 891.082031 821.367188 886.820312 828.6875 883.222656 835.964844 C 879.96875 842.542969 877.753906 852.667969 869.039062 854.015625 C 858.972656 847.785156 872 821.078125 863.882812 816.625 C 865.394531 816.417969 864.972656 814.277344 865.171875 812.757812 C 875.753906 812.800781 888.199219 812.328125 893.539062 814.046875 Z M 880.386719 784.273438 C 879.59375 783.414062 878.421875 782.179688 876.777344 780.523438 C 865.105469 766.9375 868.203125 728.90625 871.617188 708.320312 C 871.617188 711.328125 871.617188 714.335938 871.617188 717.34375 C 871.480469 731.476562 868.644531 766.675781 876.777344 779.234375 C 878.191406 781.421875 879.480469 783.140625 880.386719 784.273438 C 882.359375 786.417969 881.9375 786.210938 880.386719 784.273438 Z M 869.039062 660.613281 C 864.308594 657.609375 863.972656 650.210938 862.59375 643.851562 C 859.128906 649.511719 864.910156 656.972656 863.882812 664.480469 C 859.875 659.015625 859.59375 643.011719 860.015625 637.40625 C 861.445312 634.480469 868.257812 632.824219 866.460938 623.222656 C 871.613281 622.800781 869.183594 629.957031 871.621094 632.246094 C 874.234375 627.988281 871.9375 618.8125 876.777344 616.773438 C 883.273438 616.597656 874.882812 623.304688 880.644531 623.222656 C 887.585938 621.40625 877.640625 613.160156 879.355469 612.90625 C 894.683594 613.449219 902.933594 635.109375 906.429688 652.875 C 894.007812 655.496094 878.898438 655.425781 869.039062 660.613281 Z M 915.457031 651.585938 C 910.90625 638.820312 907.457031 626.375 914.164062 614.195312 C 915.769531 614.648438 913.105469 621.628906 914.164062 625.800781 C 916.507812 624.273438 915.179688 619.078125 916.746094 616.773438 C 923.136719 616.230469 917.472656 620.636719 920.613281 621.933594 C 922.160156 613.808594 922.011719 617.527344 923.191406 609.039062 C 934.738281 618.121094 943.230469 630.257812 945.109375 649.007812 C 936.152344 645.914062 923.09375 649.136719 915.457031 651.585938 Z M 952.84375 650.296875 C 948.527344 640.683594 941.214844 629.253906 943.820312 616.773438 C 945.570312 617.171875 944.890625 620.003906 945.109375 621.933594 C 948.035156 619.269531 949.6875 615.335938 951.554688 611.617188 C 963.84375 619.101562 967.410156 635.304688 974.761719 647.71875 C 970.425781 651.546875 957.183594 646.472656 952.84375 650.296875 Z M 977.339844 642.5625 C 980.511719 653.34375 972.878906 636.113281 970.894531 632.246094 C 966.085938 622.878906 962.285156 616.738281 956.714844 609.039062 C 964.921875 616.300781 974.238281 632.011719 977.339844 642.5625 Z M 982.5 585.828125 C 979.921875 585.828125 977.34375 585.828125 974.761719 585.828125 C 985.78125 579.246094 979.460938 558.761719 976.054688 548.4375 C 976 556.136719 979.8125 575.238281 973.472656 583.25 C 970.171875 582.253906 966.164062 581.964844 964.449219 579.382812 C 960.898438 580.988281 960.71875 585.96875 958.003906 588.40625 C 956.597656 587.746094 958.949219 579.984375 958.003906 575.515625 C 954.707031 576.109375 953.558594 568.347656 954.136719 561.332031 C 950.984375 573.175781 948.152344 543.886719 954.136719 541.992188 C 959.875 541.839844 960.796875 546.503906 967.027344 545.859375 C 974.058594 543.773438 977.824219 538.425781 978.515625 529.996094 C 978.53125 529.253906 978.5625 528.519531 978.632812 527.808594 C 978.617188 528.5625 978.574219 529.285156 978.515625 529.996094 C 978.140625 546.253906 989.15625 569.542969 982.5 585.828125 Z M 982.5 585.828125 " fill-opacity="1" fill-rule="evenodd"/><path fill="#000000" d="M 510.613281 516.203125 C 507.238281 515.820312 505.984375 528.453125 510.613281 527.808594 C 509.183594 524.320312 509.613281 520.4375 511.902344 517.492188 C 511.902344 520.933594 511.902344 524.371094 511.902344 527.808594 C 516.816406 527.132812 515.484375 520.214844 515.773438 514.914062 C 519.144531 513.410156 521.316406 518.894531 520.929688 513.625 C 518.207031 510.785156 517.117188 515.28125 513.195312 514.914062 C 511.660156 508.042969 508.769531 500.933594 509.324219 495.574219 C 502.980469 498.71875 505.210938 513.53125 510.613281 516.203125 Z M 510.613281 516.203125 " fill-opacity="1" fill-rule="evenodd"/><path fill="#000000" d="M 493.855469 584.539062 C 483.53125 591.410156 471.527344 596.597656 462.910156 605.171875 C 475.320312 601.246094 483.164062 592.761719 493.855469 587.121094 C 494.113281 585.390625 499.207031 584.71875 493.855469 584.539062 Z M 493.855469 584.539062 " fill-opacity="1" fill-rule="evenodd"/><path fill="#000000" d="M 823.914062 467.207031 C 830.984375 456.226562 838.539062 445.730469 843.253906 432.394531 C 839.847656 423.328125 834.75 409.109375 829.070312 406.609375 C 831.996094 412.730469 837.605469 422.976562 835.519531 429.816406 C 829.882812 419.121094 829.046875 403.625 820.046875 396.292969 C 822.023438 410.949219 831.859375 424.523438 830.359375 440.132812 C 829.074219 453.519531 817.980469 463.09375 817.46875 473.65625 C 820.230469 470.828125 821.011719 466.023438 823.914062 463.339844 C 824.421875 465.558594 822 466.644531 823.914062 467.207031 Z M 823.914062 467.207031 " fill-opacity="1" fill-rule="evenodd"/><path fill="#000000" d="M 714.324219 516.203125 C 722.082031 515.367188 728.71875 513.410156 734.953125 511.046875 C 728.257812 519.402344 715.722656 528.765625 718.191406 541.992188 C 725.144531 531.324219 736.847656 525.40625 754.292969 525.230469 C 760.707031 529.5625 766.078125 534.933594 773.632812 538.125 C 773.890625 529.785156 775.714844 523.015625 780.078125 518.78125 C 790.960938 515.472656 799.003906 502.476562 800.707031 494.285156 C 798.246094 497.878906 792.085938 504.523438 789.105469 503.308594 C 793.039062 498.203125 804.121094 493.429688 803.285156 487.835938 C 785.210938 506.292969 743.96875 501.582031 728.507812 522.652344 C 730.273438 517.578125 739.914062 514.828125 737.53125 509.757812 C 723.707031 509.390625 713.617188 512.140625 704.011719 509.757812 C 694.800781 517.746094 679.625 526.621094 674.355469 534.253906 C 689.054688 528.324219 694.632812 513.273438 715.613281 513.625 C 715.617188 514.917969 714.570312 515.160156 714.324219 516.203125 Z M 714.324219 516.203125 " fill-opacity="1" fill-rule="evenodd"/><path fill="#000000" d="M 822.625 552.304688 C 823.671875 557.742188 820.574219 564.824219 826.492188 567.777344 C 826.777344 555.445312 822.699219 543.355469 823.914062 531.675781 C 825.160156 519.726562 832.835938 511.515625 832.941406 503.308594 C 829.5625 513.65625 818.980469 525.019531 818.757812 538.125 C 818.679688 542.644531 821.75 547.765625 822.625 552.304688 Z M 822.625 552.304688 " fill-opacity="1" fill-rule="evenodd"/><path fill="#000000" d="M 416.496094 723.792969 C 423.421875 732.898438 442.71875 749.503906 452.597656 732.816406 C 439.753906 746.347656 423.238281 727.464844 416.496094 723.792969 Z M 416.496094 723.792969 " fill-opacity="1" fill-rule="evenodd"/><path fill="#000000" d="M 777.5 859.175781 C 778.453125 862.949219 780.617188 865.511719 782.65625 868.199219 C 782.179688 863.949219 779.644531 861.757812 777.5 859.175781 Z M 777.5 859.175781 " fill-opacity="1" fill-rule="evenodd"/><path fill="#000000" d="M 776.210938 933.957031 C 747.453125 928.332031 717.238281 917.292969 697.5625 906.882812 C 728.140625 928.308594 768.492188 939.957031 816.179688 944.273438 C 814.40625 938.738281 802.503906 943.335938 799.417969 939.113281 C 805.378906 937.542969 817.386719 941.914062 817.46875 937.824219 C 792.363281 936.714844 774.734375 928.125 751.714844 924.933594 C 756.761719 931.058594 770.65625 928.339844 776.210938 933.957031 Z M 776.210938 933.957031 " fill-opacity="1" fill-rule="evenodd"/><g clip-path="url(#060964c65e)"><g transform="matrix(1, 0, 0, 1, 0, 0.000000000000112861)"><g clip-path="url(#6ddcac9428)"><g fill="#000000" fill-opacity="1"><g transform="translate(0.576849, 1289.667404)"><g><path d="M 255.65625 -220.625 C 255.65625 -192.613281 261.195312 -165.179688 272.28125 -138.328125 C 283.375 -111.484375 298.550781 -87.84375 317.8125 -67.40625 C 337.070312 -46.976562 359.539062 -30.632812 385.21875 -18.375 C 410.90625 -6.125 437.757812 0 465.78125 0 L 43.78125 0 C 71.789062 0 98.632812 -6.125 124.3125 -18.375 C 150 -30.632812 172.472656 -46.976562 191.734375 -67.40625 C 210.992188 -87.84375 226.460938 -111.484375 238.140625 -138.328125 C 249.816406 -165.179688 255.65625 -192.613281 255.65625 -220.625 Z M 952.5625 -1005.09375 C 952.5625 -1033.101562 946.722656 -1060.535156 935.046875 -1087.390625 C 923.378906 -1114.242188 907.910156 -1137.882812 888.640625 -1158.3125 C 869.378906 -1178.738281 846.90625 -1195.078125 821.21875 -1207.328125 C 795.539062 -1219.585938 768.695312 -1225.71875 740.6875 -1225.71875 L 1162.6875 -1225.71875 C 1134.664062 -1225.71875 1107.8125 -1219.585938 1082.125 -1207.328125 C 1056.445312 -1195.078125 1033.976562 -1178.738281 1014.71875 -1158.3125 C 995.457031 -1137.882812 980.28125 -1114.242188 969.1875 -1087.390625 C 958.101562 -1060.535156 952.5625 -1033.101562 952.5625 -1005.09375 Z M 957.8125 -115.5625 C 957.8125 -86.382812 968.609375 -59.828125 990.203125 -35.890625 C 1011.804688 -11.960938 1037.195312 0 1066.375 0 L 647.875 0 L 343.203125 -880.765625 C 335.023438 -901.773438 319.847656 -912.28125 297.671875 -912.28125 C 284.828125 -912.28125 273.734375 -907.609375 264.390625 -898.265625 C 255.054688 -888.929688 250.390625 -877.847656 250.390625 -865.015625 L 250.390625 -1110.15625 C 250.390625 -1139.332031 239.300781 -1165.882812 217.125 -1189.8125 C 194.945312 -1213.75 169.265625 -1225.71875 140.078125 -1225.71875 L 558.578125 -1225.71875 L 863.265625 -344.953125 C 871.429688 -323.941406 886.601562 -313.4375 908.78125 -313.4375 C 921.625 -313.4375 933.003906 -318.101562 942.921875 -327.4375 C 952.847656 -336.78125 957.8125 -347.875 957.8125 -360.71875 Z M 957.8125 -115.5625 "/></g></g></g></g></g></g></g></g></svg>